<?plantuml 1.2026.2beta3?><svg xmlns="http://www.w3.org/2000/svg" xmlns:xlink="http://www.w3.org/1999/xlink" contentStyleType="text/css" data-diagram-type="DESCRIPTION" height="647px" preserveAspectRatio="none" style="width:4321px;height:647px;background:#FEFEFE;" version="1.1" viewBox="0 0 4321 647" width="4321px" zoomAndPan="magnify"><defs/><g><rect fill="#FEFEFE" height="647" style="stroke:none;stroke-width:1;" width="4321" x="0" y="0"/><!--cluster App--><g class="cluster" data-qualified-name="App" data-source-line="6" id="ent0002"><path d="M8.5,6 L40.3779,6 A3.75,3.75 0 0 1 42.8779,8.5 L49.8779,28.2969 L4311.5,28.2969 A2.5,2.5 0 0 1 4314,30.7969 L4314,637.9 A2.5,2.5 0 0 1 4311.5,640.4 L8.5,640.4 A2.5,2.5 0 0 1 6,637.9 L6,8.5 A2.5,2.5 0 0 1 8.5,6" fill="none" style="stroke:#000000;stroke-width:1.5;"/><line style="stroke:#000000;stroke-width:1.5;" x1="6" x2="49.8779" y1="28.2969" y2="28.2969"/><text fill="#000000" font-family="sans-serif" font-size="14" font-weight="bold" lengthAdjust="spacing" textLength="30.8779" x="10" y="20.9951">App</text></g><!--cluster Layout--><g class="cluster" data-qualified-name="App.Layout" data-source-line="10" id="ent0004"><path d="M1991.5,149.51 L2046.2715,149.51 A3.75,3.75 0 0 1 2048.7715,152.01 L2055.7715,171.8069 L2189.5,171.8069 A2.5,2.5 0 0 1 2192,174.3069 L2192,234.31 A2.5,2.5 0 0 1 2189.5,236.81 L1991.5,236.81 A2.5,2.5 0 0 1 1989,234.31 L1989,152.01 A2.5,2.5 0 0 1 1991.5,149.51" fill="none" style="stroke:#000000;stroke-width:1.5;"/><line style="stroke:#000000;stroke-width:1.5;" x1="1989" x2="2055.7715" y1="171.8069" y2="171.8069"/><text fill="#000000" font-family="sans-serif" font-size="14" font-weight="bold" lengthAdjust="spacing" textLength="53.7715" x="1993" y="164.5051">Layout</text></g><!--cluster Pages--><g class="cluster" data-qualified-name="App.Pages" data-source-line="15" id="ent0007"><path d="M2350.5,124.3 L2399.0576,124.3 A3.75,3.75 0 0 1 2401.5576,126.8 L2408.5576,146.5969 L4279.5,146.5969 A2.5,2.5 0 0 1 4282,149.0969 L4282,453.6 A2.5,2.5 0 0 1 4279.5,456.1 L2350.5,456.1 A2.5,2.5 0 0 1 2348,453.6 L2348,126.8 A2.5,2.5 0 0 1 2350.5,124.3" fill="none" style="stroke:#000000;stroke-width:1.5;"/><line style="stroke:#000000;stroke-width:1.5;" x1="2348" x2="2408.5576" y1="146.5969" y2="146.5969"/><text fill="#000000" font-family="sans-serif" font-size="14" font-weight="bold" lengthAdjust="spacing" textLength="47.5576" x="2352" y="139.2951">Pages</text></g><!--cluster Home--><g class="cluster" data-qualified-name="App.Pages.Home" data-source-line="16" id="ent0008"><path d="M3480.5,175.3 L3526.918,175.3 A3.75,3.75 0 0 1 3529.418,177.8 L3536.418,197.5969 L4153.5,197.5969 A2.5,2.5 0 0 1 4156,200.0969 L4156,421.6 A2.5,2.5 0 0 1 4153.5,424.1 L3480.5,424.1 A2.5,2.5 0 0 1 3478,421.6 L3478,177.8 A2.5,2.5 0 0 1 3480.5,175.3" fill="none" style="stroke:#000000;stroke-width:1.5;"/><line style="stroke:#000000;stroke-width:1.5;" x1="3478" x2="3536.418" y1="197.5969" y2="197.5969"/><text fill="#000000" font-family="sans-serif" font-size="14" font-weight="bold" lengthAdjust="spacing" textLength="45.418" x="3482" y="190.2951">Home</text></g><!--cluster Components--><g class="cluster" data-qualified-name="App.Components" data-source-line="28" id="ent0018"><path d="M32.5,285.81 L132.0742,285.81 A3.75,3.75 0 0 1 134.5742,288.31 L141.5742,308.1069 L1244.5,308.1069 A2.5,2.5 0 0 1 1247,310.6069 L1247,613.9 A2.5,2.5 0 0 1 1244.5,616.4 L32.5,616.4 A2.5,2.5 0 0 1 30,613.9 L30,288.31 A2.5,2.5 0 0 1 32.5,285.81" fill="none" style="stroke:#000000;stroke-width:1.5;"/><line style="stroke:#000000;stroke-width:1.5;" x1="30" x2="141.5742" y1="308.1069" y2="308.1069"/><text fill="#000000" font-family="sans-serif" font-size="14" font-weight="bold" lengthAdjust="spacing" textLength="98.5742" x="34" y="300.8051">Components</text></g><!--cluster Products--><g class="cluster" data-qualified-name="App.Components.Products" data-source-line="29" id="ent0019"><path d="M793.5,328.81 L864.5957,328.81 A3.75,3.75 0 0 1 867.0957,331.31 L874.0957,351.1069 L1220.5,351.1069 A2.5,2.5 0 0 1 1223,353.6069 L1223,413.6 A2.5,2.5 0 0 1 1220.5,416.1 L793.5,416.1 A2.5,2.5 0 0 1 791,413.6 L791,331.31 A2.5,2.5 0 0 1 793.5,328.81" fill="none" style="stroke:#000000;stroke-width:1.5;"/><line style="stroke:#000000;stroke-width:1.5;" x1="791" x2="874.0957" y1="351.1069" y2="351.1069"/><text fill="#000000" font-family="sans-serif" font-size="14" font-weight="bold" lengthAdjust="spacing" textLength="70.0957" x="795" y="343.8051">Products</text></g><!--cluster Configurator Steps--><g class="cluster" data-qualified-name="App.Components.Configurator Steps" data-source-line="35" id="ent0023"><path d="M56.5,328.81 L207.3027,328.81 A3.75,3.75 0 0 1 209.8027,331.31 L216.8027,351.1069 L764.5,351.1069 A2.5,2.5 0 0 1 767,353.6069 L767,413.6 A2.5,2.5 0 0 1 764.5,416.1 L56.5,416.1 A2.5,2.5 0 0 1 54,413.6 L54,331.31 A2.5,2.5 0 0 1 56.5,328.81" fill="none" style="stroke:#000000;stroke-width:1.5;"/><line style="stroke:#000000;stroke-width:1.5;" x1="54" x2="216.8027" y1="351.1069" y2="351.1069"/><text fill="#000000" font-family="sans-serif" font-size="14" font-weight="bold" lengthAdjust="spacing" textLength="149.8027" x="58" y="343.8051">Configurator Steps</text></g><!--cluster Common--><g class="cluster" data-qualified-name="App.Components.Common" data-source-line="42" id="ent0028"><path d="M704.5,505.1 L774.1533,505.1 A3.75,3.75 0 0 1 776.6533,507.6 L783.6533,527.3969 L908.5,527.3969 A2.5,2.5 0 0 1 911,529.8969 L911,589.9 A2.5,2.5 0 0 1 908.5,592.4 L704.5,592.4 A2.5,2.5 0 0 1 702,589.9 L702,507.6 A2.5,2.5 0 0 1 704.5,505.1" fill="none" style="stroke:#000000;stroke-width:1.5;"/><line style="stroke:#000000;stroke-width:1.5;" x1="702" x2="783.6533" y1="527.3969" y2="527.3969"/><text fill="#000000" font-family="sans-serif" font-size="14" font-weight="bold" lengthAdjust="spacing" textLength="68.6533" x="706" y="520.0951">Common</text></g><!--cluster Features--><g class="cluster" data-qualified-name="App.Features" data-source-line="55" id="ent0035"><path d="M2218.5,149.51 L2289.3975,149.51 A3.75,3.75 0 0 1 2291.8975,152.01 L2298.8975,171.8069 L2321.5,171.8069 A2.5,2.5 0 0 1 2324,174.3069 L2324,234.31 A2.5,2.5 0 0 1 2321.5,236.81 L2218.5,236.81 A2.5,2.5 0 0 1 2216,234.31 L2216,152.01 A2.5,2.5 0 0 1 2218.5,149.51" fill="none" style="stroke:#000000;stroke-width:1.5;"/><line style="stroke:#000000;stroke-width:1.5;" x1="2216" x2="2298.8975" y1="171.8069" y2="171.8069"/><text fill="#000000" font-family="sans-serif" font-size="14" font-weight="bold" lengthAdjust="spacing" textLength="69.8975" x="2220" y="164.5051">Features</text></g><!--cluster Stores (Zustand)--><g class="cluster" data-qualified-name="App.Stores .Zustand." data-source-line="59" id="ent0037"><path d="M1273.5,328.81 L1407.876,328.81 A3.75,3.75 0 0 1 1410.376,331.31 L1417.376,351.1069 L2321.5,351.1069 A2.5,2.5 0 0 1 2324,353.6069 L2324,413.6 A2.5,2.5 0 0 1 2321.5,416.1 L1273.5,416.1 A2.5,2.5 0 0 1 1271,413.6 L1271,331.31 A2.5,2.5 0 0 1 1273.5,328.81" fill="none" style="stroke:#000000;stroke-width:1.5;"/><line style="stroke:#000000;stroke-width:1.5;" x1="1271" x2="1417.376" y1="351.1069" y2="351.1069"/><text fill="#000000" font-family="sans-serif" font-size="14" font-weight="bold" lengthAdjust="spacing" textLength="133.376" x="1275" y="343.8051">Stores (Zustand)</text></g><!--cluster Services--><g class="cluster" data-qualified-name="App.Services" data-source-line="68" id="ent0044"><path d="M1273.5,505.1 L1341.0342,505.1 A3.75,3.75 0 0 1 1343.5342,507.6 L1350.5342,527.3969 L1440.5,527.3969 A2.5,2.5 0 0 1 1443,529.8969 L1443,589.9 A2.5,2.5 0 0 1 1440.5,592.4 L1273.5,592.4 A2.5,2.5 0 0 1 1271,589.9 L1271,507.6 A2.5,2.5 0 0 1 1273.5,505.1" fill="none" style="stroke:#000000;stroke-width:1.5;"/><line style="stroke:#000000;stroke-width:1.5;" x1="1271" x2="1350.5342" y1="527.3969" y2="527.3969"/><text fill="#000000" font-family="sans-serif" font-size="14" font-weight="bold" lengthAdjust="spacing" textLength="66.5342" x="1275" y="520.0951">Services</text></g><!--entity Router--><g class="entity" data-qualified-name="App.Router" data-source-line="8" id="ent0003"><rect fill="#F1F1F1" height="36.2969" rx="2.5" ry="2.5" style="stroke:#181818;stroke-width:0.5;" width="67.0244" x="2886.49" y="41"/><text fill="#000000" font-family="sans-serif" font-size="14" lengthAdjust="spacing" textLength="47.0244" x="2896.49" y="63.9951">Router</text></g><!--entity Navbar--><g class="entity" data-qualified-name="App.Layout.Navbar" data-source-line="11" id="ent0005"><rect fill="#F1F1F1" height="36.2969" rx="2.5" ry="2.5" style="stroke:#181818;stroke-width:0.5;" width="70.5586" x="2004.72" y="184.51"/><text fill="#000000" font-family="sans-serif" font-size="14" lengthAdjust="spacing" textLength="50.5586" x="2014.72" y="207.5051">Navbar</text></g><!--entity Footer--><g class="entity" data-qualified-name="App.Layout.Footer" data-source-line="12" id="ent0006"><rect fill="#F1F1F1" height="36.2969" rx="2.5" ry="2.5" style="stroke:#181818;stroke-width:0.5;" width="65.042" x="2110.48" y="184.51"/><text fill="#000000" font-family="sans-serif" font-size="14" lengthAdjust="spacing" textLength="45.042" x="2120.48" y="207.5051">Footer</text></g><!--entity BrowseDiamonds--><g class="entity" data-qualified-name="App.Pages.BrowseDiamonds" data-source-line="17" id="ent0009"><rect fill="#F1F1F1" height="36.2969" rx="2.5" ry="2.5" style="stroke:#181818;stroke-width:0.5;" width="141.7891" x="2364.11" y="184.51"/><text fill="#000000" font-family="sans-serif" font-size="14" lengthAdjust="spacing" textLength="121.7891" x="2374.11" y="207.5051">BrowseDiamonds</text></g><!--entity BrowseSettings--><g class="entity" data-qualified-name="App.Pages.BrowseSettings" data-source-line="18" id="ent0010"><rect fill="#F1F1F1" height="36.2969" rx="2.5" ry="2.5" style="stroke:#181818;stroke-width:0.5;" width="128.7051" x="2540.65" y="184.51"/><text fill="#000000" font-family="sans-serif" font-size="14" lengthAdjust="spacing" textLength="108.7051" x="2550.65" y="207.5051">BrowseSettings</text></g><!--entity DiamondDetail--><g class="entity" data-qualified-name="App.Pages.DiamondDetail" data-source-line="19" id="ent0011"><rect fill="#F1F1F1" height="36.2969" rx="2.5" ry="2.5" style="stroke:#181818;stroke-width:0.5;" width="124.4531" x="2704.77" y="184.51"/><text fill="#000000" font-family="sans-serif" font-size="14" lengthAdjust="spacing" textLength="104.4531" x="2714.77" y="207.5051">DiamondDetail</text></g><!--entity SettingDetail--><g class="entity" data-qualified-name="App.Pages.SettingDetail" data-source-line="20" id="ent0012"><rect fill="#F1F1F1" height="36.2969" rx="2.5" ry="2.5" style="stroke:#181818;stroke-width:0.5;" width="111.3691" x="2864.32" y="184.51"/><text fill="#000000" font-family="sans-serif" font-size="14" lengthAdjust="spacing" textLength="91.3691" x="2874.32" y="207.5051">SettingDetail</text></g><!--entity Configurator--><g class="entity" data-qualified-name="App.Pages.Configurator" data-source-line="21" id="ent0013"><rect fill="#F1F1F1" height="36.2969" rx="2.5" ry="2.5" style="stroke:#181818;stroke-width:0.5;" width="107.9375" x="3011.03" y="184.51"/><text fill="#000000" font-family="sans-serif" font-size="14" lengthAdjust="spacing" textLength="87.9375" x="3021.03" y="207.5051">Configurator</text></g><!--entity Comparison--><g class="entity" data-qualified-name="App.Pages.Comparison" data-source-line="22" id="ent0014"><rect fill="#F1F1F1" height="36.2969" rx="2.5" ry="2.5" style="stroke:#181818;stroke-width:0.5;" width="103.8223" x="3154.09" y="184.51"/><text fill="#000000" font-family="sans-serif" font-size="14" lengthAdjust="spacing" textLength="83.8223" x="3164.09" y="207.5051">Comparison</text></g><!--entity Cart--><g class="entity" data-qualified-name="App.Pages.Cart" data-source-line="23" id="ent0015"><rect fill="#F1F1F1" height="36.2969" rx="2.5" ry="2.5" style="stroke:#181818;stroke-width:0.5;" width="49.5996" x="3293.2" y="184.51"/><text fill="#000000" font-family="sans-serif" font-size="14" lengthAdjust="spacing" textLength="29.5996" x="3303.2" y="207.5051">Cart</text></g><!--entity Checkout--><g class="entity" data-qualified-name="App.Pages.Checkout" data-source-line="24" id="ent0016"><rect fill="#F1F1F1" height="36.2969" rx="2.5" ry="2.5" style="stroke:#181818;stroke-width:0.5;" width="85.9941" x="4180" y="184.51"/><text fill="#000000" font-family="sans-serif" font-size="14" lengthAdjust="spacing" textLength="65.9941" x="4190" y="207.5051">Checkout</text></g><!--entity Account--><g class="entity" data-qualified-name="App.Pages.Account" data-source-line="25" id="ent0017"><rect fill="#F1F1F1" height="36.2969" rx="2.5" ry="2.5" style="stroke:#181818;stroke-width:0.5;" width="76.7725" x="3377.61" y="184.51"/><text fill="#000000" font-family="sans-serif" font-size="14" lengthAdjust="spacing" textLength="56.7725" x="3387.61" y="207.5051">Account</text></g><!--entity HeroSection--><g class="entity" data-qualified-name="App.Pages.Home.HeroSection" data-source-line="48" id="ent0031"><rect fill="#F1F1F1" height="36.2969" rx="2.5" ry="2.5" style="stroke:#181818;stroke-width:0.5;" width="105.4766" x="3502.26" y="363.81"/><text fill="#000000" font-family="sans-serif" font-size="14" lengthAdjust="spacing" textLength="85.4766" x="3512.26" y="386.8051">HeroSection</text></g><!--entity FeaturesSection--><g class="entity" data-qualified-name="App.Pages.Home.FeaturesSection" data-source-line="49" id="ent0032"><rect fill="#F1F1F1" height="36.2969" rx="2.5" ry="2.5" style="stroke:#181818;stroke-width:0.5;" width="133.2852" x="3642.36" y="363.81"/><text fill="#000000" font-family="sans-serif" font-size="14" lengthAdjust="spacing" textLength="113.2852" x="3652.36" y="386.8051">FeaturesSection</text></g><!--entity FeaturedProducts--><g class="entity" data-qualified-name="App.Pages.Home.FeaturedProducts" data-source-line="50" id="ent0033"><rect fill="#F1F1F1" height="36.2969" rx="2.5" ry="2.5" style="stroke:#181818;stroke-width:0.5;" width="143.8672" x="3811.07" y="363.81"/><text fill="#000000" font-family="sans-serif" font-size="14" lengthAdjust="spacing" textLength="123.8672" x="3821.07" y="386.8051">FeaturedProducts</text></g><!--entity EducationSection--><g class="entity" data-qualified-name="App.Pages.Home.EducationSection" data-source-line="51" id="ent0034"><rect fill="#F1F1F1" height="36.2969" rx="2.5" ry="2.5" style="stroke:#181818;stroke-width:0.5;" width="141.7139" x="3990.14" y="363.81"/><text fill="#000000" font-family="sans-serif" font-size="14" lengthAdjust="spacing" textLength="121.7139" x="4000.14" y="386.8051">EducationSection</text></g><!--entity DiamondCard--><g class="entity" data-qualified-name="App.Components.Products.DiamondCard" data-source-line="30" id="ent0020"><rect fill="#F1F1F1" height="36.2969" rx="2.5" ry="2.5" style="stroke:#181818;stroke-width:0.5;" width="116.209" x="951.9" y="363.81"/><text fill="#000000" font-family="sans-serif" font-size="14" lengthAdjust="spacing" textLength="96.209" x="961.9" y="386.8051">DiamondCard</text></g><!--entity SettingCard--><g class="entity" data-qualified-name="App.Components.Products.SettingCard" data-source-line="31" id="ent0021"><rect fill="#F1F1F1" height="36.2969" rx="2.5" ry="2.5" style="stroke:#181818;stroke-width:0.5;" width="103.125" x="1103.44" y="363.81"/><text fill="#000000" font-family="sans-serif" font-size="14" lengthAdjust="spacing" textLength="83.125" x="1113.44" y="386.8051">SettingCard</text></g><!--entity FilterSidebar--><g class="entity" data-qualified-name="App.Components.Products.FilterSidebar" data-source-line="32" id="ent0022"><rect fill="#F1F1F1" height="36.2969" rx="2.5" ry="2.5" style="stroke:#181818;stroke-width:0.5;" width="109.1885" x="807.41" y="363.81"/><text fill="#000000" font-family="sans-serif" font-size="14" lengthAdjust="spacing" textLength="89.1885" x="817.41" y="386.8051">FilterSidebar</text></g><!--entity ProgressStepper--><g class="entity" data-qualified-name="App.Components.Configurator Steps.ProgressStepper" data-source-line="36" id="ent0024"><rect fill="#F1F1F1" height="36.2969" rx="2.5" ry="2.5" style="stroke:#181818;stroke-width:0.5;" width="135.7393" x="271.13" y="363.81"/><text fill="#000000" font-family="sans-serif" font-size="14" lengthAdjust="spacing" textLength="115.7393" x="281.13" y="386.8051">ProgressStepper</text></g><!--entity StepOneDiamond--><g class="entity" data-qualified-name="App.Components.Configurator Steps.StepOneDiamond" data-source-line="37" id="ent0025"><rect fill="#F1F1F1" height="36.2969" rx="2.5" ry="2.5" style="stroke:#181818;stroke-width:0.5;" width="143.5938" x="442.2" y="363.81"/><text fill="#000000" font-family="sans-serif" font-size="14" lengthAdjust="spacing" textLength="123.5938" x="452.2" y="386.8051">StepOneDiamond</text></g><!--entity StepTwoSetting--><g class="entity" data-qualified-name="App.Components.Configurator Steps.StepTwoSetting" data-source-line="38" id="ent0026"><rect fill="#F1F1F1" height="36.2969" rx="2.5" ry="2.5" style="stroke:#181818;stroke-width:0.5;" width="130.5713" x="620.71" y="363.81"/><text fill="#000000" font-family="sans-serif" font-size="14" lengthAdjust="spacing" textLength="110.5713" x="630.71" y="386.8051">StepTwoSetting</text></g><!--entity StepThreeCustomize--><g class="entity" data-qualified-name="App.Components.Configurator Steps.StepThreeCustomize" data-source-line="39" id="ent0027"><rect fill="#F1F1F1" height="36.2969" rx="2.5" ry="2.5" style="stroke:#181818;stroke-width:0.5;" width="165.7695" x="70.12" y="363.81"/><text fill="#000000" font-family="sans-serif" font-size="14" lengthAdjust="spacing" textLength="145.7695" x="80.12" y="386.8051">StepThreeCustomize</text></g><!--entity Button--><g class="entity" data-qualified-name="App.Components.Common.Button" data-source-line="43" id="ent0029"><rect fill="#F1F1F1" height="36.2969" rx="2.5" ry="2.5" style="stroke:#181818;stroke-width:0.5;" width="66.8945" x="828.55" y="540.1"/><text fill="#000000" font-family="sans-serif" font-size="14" lengthAdjust="spacing" textLength="46.8945" x="838.55" y="563.0951">Button</text></g><!--entity Loading--><g class="entity" data-qualified-name="App.Components.Common.Loading" data-source-line="44" id="ent0030"><rect fill="#F1F1F1" height="36.2969" rx="2.5" ry="2.5" style="stroke:#181818;stroke-width:0.5;" width="75.4805" x="718.26" y="540.1"/><text fill="#000000" font-family="sans-serif" font-size="14" lengthAdjust="spacing" textLength="55.4805" x="728.26" y="563.0951">Loading</text></g><!--entity Chatbot--><g class="entity" data-qualified-name="App.Features.Chatbot" data-source-line="56" id="ent0036"><rect fill="#F1F1F1" height="36.2969" rx="2.5" ry="2.5" style="stroke:#181818;stroke-width:0.5;" width="75.6582" x="2232.17" y="184.51"/><text fill="#000000" font-family="sans-serif" font-size="14" lengthAdjust="spacing" textLength="55.6582" x="2242.17" y="207.5051">Chatbot</text></g><!--entity CartStore--><g class="entity" data-qualified-name="App.Stores .Zustand..CartStore" data-source-line="60" id="ent0038"><rect fill="#F1F1F1" height="36.2969" rx="2.5" ry="2.5" style="stroke:#181818;stroke-width:0.5;" width="111.6904" x="2047.15" y="363.81"/><text fill="#000000" font-family="sans-serif" font-size="14" lengthAdjust="spacing" textLength="91.6904" x="2057.15" y="386.8051">useCartStore</text></g><!--entity FavStore--><g class="entity" data-qualified-name="App.Stores .Zustand..FavStore" data-source-line="61" id="ent0039"><rect fill="#F1F1F1" height="36.2969" rx="2.5" ry="2.5" style="stroke:#181818;stroke-width:0.5;" width="146.6152" x="1459.69" y="363.81"/><text fill="#000000" font-family="sans-serif" font-size="14" lengthAdjust="spacing" textLength="126.6152" x="1469.69" y="386.8051">useFavoritesStore</text></g><!--entity UserStore--><g class="entity" data-qualified-name="App.Stores .Zustand..UserStore" data-source-line="62" id="ent0040"><rect fill="#F1F1F1" height="36.2969" rx="2.5" ry="2.5" style="stroke:#181818;stroke-width:0.5;" width="114.001" x="2194" y="363.81"/><text fill="#000000" font-family="sans-serif" font-size="14" lengthAdjust="spacing" textLength="94.001" x="2204" y="386.8051">useUserStore</text></g><!--entity ConfigStore--><g class="entity" data-qualified-name="App.Stores .Zustand..ConfigStore" data-source-line="63" id="ent0041"><rect fill="#F1F1F1" height="36.2969" rx="2.5" ry="2.5" style="stroke:#181818;stroke-width:0.5;" width="170.0283" x="1640.99" y="363.81"/><text fill="#000000" font-family="sans-serif" font-size="14" lengthAdjust="spacing" textLength="150.0283" x="1650.99" y="386.8051">useConfiguratorStore</text></g><!--entity CompStore--><g class="entity" data-qualified-name="App.Stores .Zustand..CompStore" data-source-line="64" id="ent0042"><rect fill="#F1F1F1" height="36.2969" rx="2.5" ry="2.5" style="stroke:#181818;stroke-width:0.5;" width="165.9131" x="1846.04" y="363.81"/><text fill="#000000" font-family="sans-serif" font-size="14" lengthAdjust="spacing" textLength="145.9131" x="1856.04" y="386.8051">useComparisonStore</text></g><!--entity ChatStore--><g class="entity" data-qualified-name="App.Stores .Zustand..ChatStore" data-source-line="65" id="ent0043"><rect fill="#F1F1F1" height="36.2969" rx="2.5" ry="2.5" style="stroke:#181818;stroke-width:0.5;" width="137.749" x="1287.13" y="363.81"/><text fill="#000000" font-family="sans-serif" font-size="14" lengthAdjust="spacing" textLength="117.749" x="1297.13" y="386.8051">useChatbotStore</text></g><!--entity APIClient--><g class="entity" data-qualified-name="App.Services.APIClient" data-source-line="69" id="ent0045"><rect fill="#F1F1F1" height="36.2969" rx="2.5" ry="2.5" style="stroke:#181818;stroke-width:0.5;" width="140.1143" x="1286.94" y="540.1"/><text fill="#000000" font-family="sans-serif" font-size="14" lengthAdjust="spacing" textLength="120.1143" x="1296.94" y="563.0951">API Client (Axios)</text></g><!--link Router to Navbar--><g class="link" data-entity-1="ent0003" data-entity-2="ent0005" data-link-type="dependency" data-source-line="74" id="lnk46"><path d="M2886.24,60.64 C2739.55,63.01 2161.83,74.9 2093,116.3 C2067.74,131.49 2054.7625,158.1847 2047.4825,178.4047" fill="none" id="Router-to-Navbar" style="stroke:#181818;stroke-width:1;"/><polygon fill="#181818" points="2045.45,184.05,2052.2623,176.9371,2047.1438,179.3456,2044.7353,174.2271,2045.45,184.05" style="stroke:#181818;stroke-width:1;"/></g><!--link Router to Footer--><g class="link" data-entity-1="ent0003" data-entity-2="ent0006" data-link-type="dependency" data-source-line="75" id="lnk47"><path d="M2886.17,61.33 C2753.9,66.17 2276.15,85.64 2216,116.3 C2186.47,131.35 2166.9867,158.8735 2155.1967,179.1435" fill="none" id="Router-to-Footer" style="stroke:#181818;stroke-width:1;"/><polygon fill="#181818" points="2152.18,184.33,2160.1627,178.5614,2154.6939,180.0079,2153.2474,174.5392,2152.18,184.33" style="stroke:#181818;stroke-width:1;"/></g><!--link Router to Home--><g class="link" data-entity-1="ent0003" data-entity-2="ent0008" data-link-type="dependency" data-source-line="76" id="lnk48"><path d="M2953.6,59.99 C3096.87,59.64 3651.86,61.84 3705,116.3 C3711.525,122.99 3712.595,143.7725 3712,163.155 C3711.9256,165.5778 3711.8252,167.9787 3711.7062,170.3276 C3711.6467,171.502 3711.5826,172.6633 3711.5147,173.8079 C3711.4977,174.094 3711.4805,174.3791 3711.4631,174.6631 C3711.4544,174.8051 3711.819,191.2553 3711.8102,191.3967" fill="none" id="Router-to-Home" style="stroke:#181818;stroke-width:1;"/><polygon fill="#181818" points="3711.4368,197.3851,3715.9892,188.6515,3711.748,192.3948,3708.0047,188.1536,3711.4368,197.3851" style="stroke:#181818;stroke-width:1;"/></g><!--link Router to BrowseDiamonds--><g class="link" data-entity-1="ent0003" data-entity-2="ent0009" data-link-type="dependency" data-source-line="77" id="lnk49"><path d="M2886.03,62.25 C2802.06,67.87 2586.92,85 2523,116.3 C2490.69,132.12 2466.3344,159.4837 2451.0344,179.4937" fill="none" id="Router-to-BrowseDiamonds" style="stroke:#181818;stroke-width:1;"/><polygon fill="#181818" points="2447.39,184.26,2456.0342,179.5401,2450.427,180.288,2449.6791,174.6809,2447.39,184.26" style="stroke:#181818;stroke-width:1;"/></g><!--link Router to BrowseSettings--><g class="link" data-entity-1="ent0003" data-entity-2="ent0010" data-link-type="dependency" data-source-line="78" id="lnk50"><path d="M2886.18,62.34 C2838.79,66.69 2751.24,79.43 2687,116.3 C2657.24,133.38 2634.9596,159.6626 2620.5996,179.2326" fill="none" id="Router-to-BrowseSettings" style="stroke:#181818;stroke-width:1;"/><polygon fill="#181818" points="2617.05,184.07,2625.5993,179.1803,2620.008,180.0388,2619.1494,174.4475,2617.05,184.07" style="stroke:#181818;stroke-width:1;"/></g><!--link Router to DiamondDetail--><g class="link" data-entity-1="ent0003" data-entity-2="ent0011" data-link-type="dependency" data-source-line="79" id="lnk51"><path d="M2895.21,77.66 C2880.69,88.29 2862.28,102.44 2847,116.3 C2822.78,138.27 2801.3191,161.8442 2785.8091,179.6642" fill="none" id="Router-to-DiamondDetail" style="stroke:#181818;stroke-width:1;"/><polygon fill="#181818" points="2781.87,184.19,2790.7959,180.0274,2785.1526,180.4185,2784.7615,174.7752,2781.87,184.19" style="stroke:#181818;stroke-width:1;"/></g><!--link Router to SettingDetail--><g class="link" data-entity-1="ent0003" data-entity-2="ent0012" data-link-type="dependency" data-source-line="80" id="lnk52"><path d="M2920,77.79 C2920,105.05 2920,151.11 2920,178.24" fill="none" id="Router-to-SettingDetail" style="stroke:#181818;stroke-width:1;"/><polygon fill="#181818" points="2920,184.24,2924,175.24,2920,179.24,2916,175.24,2920,184.24" style="stroke:#181818;stroke-width:1;"/></g><!--link Router to Configurator--><g class="link" data-entity-1="ent0003" data-entity-2="ent0013" data-link-type="dependency" data-source-line="81" id="lnk53"><path d="M2945.4,77.62 C2959.96,88.12 2978.21,102.16 2993,116.3 C3015.56,137.87 3034.5793,161.3008 3048.2893,179.2608" fill="none" id="Router-to-Configurator" style="stroke:#181818;stroke-width:1;"/><polygon fill="#181818" points="3051.93,184.03,3049.6485,174.449,3048.8961,180.0556,3043.2895,179.3033,3051.93,184.03" style="stroke:#181818;stroke-width:1;"/></g><!--link Router to Comparison--><g class="link" data-entity-1="ent0003" data-entity-2="ent0014" data-link-type="dependency" data-source-line="82" id="lnk54"><path d="M2953.65,62.44 C2998.46,66.86 3078.72,79.65 3136,116.3 C3162.96,133.55 3181.4345,159.4802 3193.1845,178.9902" fill="none" id="Router-to-Comparison" style="stroke:#181818;stroke-width:1;"/><polygon fill="#181818" points="3196.28,184.13,3195.0633,174.3566,3193.7004,179.8468,3188.2102,178.4839,3196.28,184.13" style="stroke:#181818;stroke-width:1;"/></g><!--link Router to Cart--><g class="link" data-entity-1="ent0003" data-entity-2="ent0015" data-link-type="dependency" data-source-line="83" id="lnk55"><path d="M2953.93,61.63 C3032.49,65.66 3224.1,79.14 3275,116.3 C3297.52,132.73 3307.4677,158.559 3312.6977,178.359" fill="none" id="Router-to-Cart" style="stroke:#181818;stroke-width:1;"/><polygon fill="#181818" points="3314.23,184.16,3315.7989,174.4369,3312.9531,179.3258,3308.0642,176.48,3314.23,184.16" style="stroke:#181818;stroke-width:1;"/></g><!--link Router to Checkout--><g class="link" data-entity-1="ent0003" data-entity-2="ent0016" data-link-type="dependency" data-source-line="84" id="lnk56"><path d="M2953.74,59.9 C3141.75,58.74 4055.48,56.23 4164,116.3 C4190.79,131.13 4205.6959,158.3684 4214.2459,178.7184" fill="none" id="Router-to-Checkout" style="stroke:#181818;stroke-width:1;"/><polygon fill="#181818" points="4216.57,184.25,4216.7716,174.4032,4214.6333,179.6403,4209.3961,177.502,4216.57,184.25" style="stroke:#181818;stroke-width:1;"/></g><!--link Router to Account--><g class="link" data-entity-1="ent0003" data-entity-2="ent0017" data-link-type="dependency" data-source-line="85" id="lnk57"><path d="M2953.77,60.86 C3044.66,63.34 3292.16,73.91 3360,116.3 C3385.4,132.17 3399.412,158.7311 3407.532,178.7211" fill="none" id="Router-to-Account" style="stroke:#181818;stroke-width:1;"/><polygon fill="#181818" points="3409.79,184.28,3410.1089,174.4363,3407.9083,179.6476,3402.697,177.447,3409.79,184.28" style="stroke:#181818;stroke-width:1;"/></g><!--link Home to HeroSection--><g class="link" data-entity-1="ent0008" data-entity-2="ent0031" data-link-type="dependency" data-source-line="88" id="lnk58"><path d="M3709.02,203.73 C3709.42,205.3 3715.6,230.51 3705,244.81 C3682.09,275.7 3654.84,253.54 3625,277.81 C3595.62,301.71 3576.318,335.7313 3565.378,358.2913" fill="none" id="Home-to-HeroSection" style="stroke:#181818;stroke-width:1;"/><polygon fill="#181818" points="3562.76,363.69,3570.2861,357.3373,3564.9417,359.1911,3563.0878,353.8466,3562.76,363.69" style="stroke:#181818;stroke-width:1;"/></g><!--link Home to FeaturesSection--><g class="link" data-entity-1="ent0008" data-entity-2="ent0032" data-link-type="dependency" data-source-line="89" id="lnk59"><path d="M3709,203.79 C3709,208.1 3709,313.65 3709,357.49" fill="none" id="Home-to-FeaturesSection" style="stroke:#181818;stroke-width:1;"/><polygon fill="#181818" points="3709,363.49,3713,354.49,3709,358.49,3705,354.49,3709,363.49" style="stroke:#181818;stroke-width:1;"/></g><!--link Home to FeaturedProducts--><g class="link" data-entity-1="ent0008" data-entity-2="ent0033" data-link-type="dependency" data-source-line="90" id="lnk60"><path d="M3708.98,203.73 C3708.58,205.3 3702.4,230.51 3713,244.81 C3735.91,275.7 3761.75,255.39 3793,277.81 C3826.6,301.91 3852.7021,335.9549 3868.1621,358.4549" fill="none" id="Home-to-FeaturedProducts" style="stroke:#181818;stroke-width:1;"/><polygon fill="#181818" points="3871.56,363.4,3869.76,353.717,3868.7284,359.279,3863.1664,358.2475,3871.56,363.4" style="stroke:#181818;stroke-width:1;"/></g><!--link Home to EducationSection--><g class="link" data-entity-1="ent0008" data-entity-2="ent0034" data-link-type="dependency" data-source-line="91" id="lnk61"><path d="M3708.98,203.74 C3708.47,205.39 3700.6,232.03 3713,244.81 C3718.05,250.01 3965.61,274.38 3972,277.81 C4009.09,297.72 4034.596,334.6336 4048.546,358.4336" fill="none" id="Home-to-EducationSection" style="stroke:#181818;stroke-width:1;"/><polygon fill="#181818" points="4051.58,363.61,4050.4798,353.8228,4049.0516,359.2964,4043.578,357.8682,4051.58,363.61" style="stroke:#181818;stroke-width:1;"/></g><!--link BrowseDiamonds to DiamondCard--><g class="link" data-entity-1="ent0009" data-entity-2="ent0020" data-link-type="dependency" data-source-line="94" id="lnk62"><path d="M2397.4,221.3 C2376.32,230.24 2349.27,240.16 2324,244.81 C2274.22,253.96 1463.57,250.65 1413,252.81 C1340.19,255.91 1149.74,242.48 1086,277.81 C1051.37,297 1030.6333,333.908 1019.7033,357.948" fill="none" id="BrowseDiamonds-to-DiamondCard" style="stroke:#181818;stroke-width:1;"/><polygon fill="#181818" points="1017.22,363.41,1024.5863,356.8726,1019.2894,358.8584,1017.3037,353.5615,1017.22,363.41" style="stroke:#181818;stroke-width:1;"/></g><!--link BrowseDiamonds to FilterSidebar--><g class="link" data-entity-1="ent0009" data-entity-2="ent0022" data-link-type="dependency" data-source-line="95" id="lnk63"><path d="M2397.65,221.22 C2376.55,230.19 2349.37,240.17 2324,244.81 C2257.11,257.03 1167.79,247.51 1100,252.81 C1025.62,258.62 997.39,238.46 934,277.81 C901.16,298.19 881.7158,334.2034 871.3558,357.8734" fill="none" id="BrowseDiamonds-to-FilterSidebar" style="stroke:#181818;stroke-width:1;"/><polygon fill="#181818" points="868.95,363.37,876.223,356.729,870.9548,358.7895,868.8943,353.5213,868.95,363.37" style="stroke:#181818;stroke-width:1;"/></g><!--link BrowseSettings to SettingCard--><g class="link" data-entity-1="ent0010" data-entity-2="ent0021" data-link-type="dependency" data-source-line="96" id="lnk64"><path d="M2577.76,221.29 C2562.36,230.23 2542.36,240.15 2523,244.81 C2465.31,258.7 1514.18,248.58 1455,252.81 C1372.68,258.68 1345.98,243.33 1271,277.81 C1227.42,297.84 1192.1954,335.2659 1172.4454,359.0259" fill="none" id="BrowseSettings-to-SettingCard" style="stroke:#181818;stroke-width:1;"/><polygon fill="#181818" points="1168.61,363.64,1177.4391,359.2758,1171.8061,359.7949,1171.287,354.1619,1168.61,363.64" style="stroke:#181818;stroke-width:1;"/></g><!--link Configurator to ProgressStepper--><g class="link" data-entity-1="ent0013" data-entity-2="ent0024" data-link-type="dependency" data-source-line="99" id="lnk65"><path d="M3041.39,221.3 C3027.96,230.24 3010.39,240.16 2993,244.81 C2961.24,253.3 658.81,250.72 626,252.81 C536.16,258.52 504.01,234.67 425,277.81 C388.57,297.7 364.1543,334.5509 350.8643,358.3609" fill="none" id="Configurator-to-ProgressStepper" style="stroke:#181818;stroke-width:1;"/><polygon fill="#181818" points="347.94,363.6,355.8192,357.6909,350.3769,359.2341,348.8337,353.7918,347.94,363.6" style="stroke:#181818;stroke-width:1;"/></g><!--link Configurator to StepOneDiamond--><g class="link" data-entity-1="ent0013" data-entity-2="ent0025" data-link-type="dependency" data-source-line="100" id="lnk66"><path d="M3041.39,221.29 C3027.96,230.22 3010.38,240.14 2993,244.81 C2972.37,250.34 1476.36,252.44 1455,252.81 C1360.31,254.44 688.52,237.11 603,277.81 C564.77,296 539.4093,333.9381 525.8593,358.2681" fill="none" id="Configurator-to-StepOneDiamond" style="stroke:#181818;stroke-width:1;"/><polygon fill="#181818" points="522.94,363.51,530.8136,357.5934,525.3728,359.1418,523.8244,353.7009,522.94,363.51" style="stroke:#181818;stroke-width:1;"/></g><!--link Configurator to StepTwoSetting--><g class="link" data-entity-1="ent0013" data-entity-2="ent0026" data-link-type="dependency" data-source-line="101" id="lnk67"><path d="M3041.38,221.25 C3027.94,230.17 3010.37,240.09 2993,244.81 C2952.78,255.72 2284.35,247.63 2243,252.81 C2211.23,256.78 2204.78,265.91 2173,269.81 C2134.9,274.48 826.49,263.17 791,277.81 C748.48,295.34 717.235,334.2629 700.415,358.7729" fill="none" id="Configurator-to-StepTwoSetting" style="stroke:#181818;stroke-width:1;"/><polygon fill="#181818" points="697.02,363.72,705.4106,358.5626,699.8491,359.5974,698.8144,354.036,697.02,363.72" style="stroke:#181818;stroke-width:1;"/></g><!--link Configurator to StepThreeCustomize--><g class="link" data-entity-1="ent0013" data-entity-2="ent0027" data-link-type="dependency" data-source-line="102" id="lnk68"><path d="M3041.39,221.3 C3027.96,230.24 3010.39,240.16 2993,244.81 C2958.68,253.98 470.44,250.31 435,252.81 C353.99,258.5 326.53,241.28 254,277.81 C214.16,297.87 184.3231,334.9793 167.7531,358.7293" fill="none" id="Configurator-to-StepThreeCustomize" style="stroke:#181818;stroke-width:1;"/><polygon fill="#181818" points="164.32,363.65,172.7502,358.5576,167.1809,359.5494,166.1892,353.9801,164.32,363.65" style="stroke:#181818;stroke-width:1;"/></g><!--link DiamondCard to Button--><g class="link" data-entity-1="ent0020" data-entity-2="ent0029" data-link-type="dependency" data-source-line="105" id="lnk69"><path d="M995.27,400.3 C966.97,433.63 909.1935,501.6664 880.7735,535.1364" fill="none" id="DiamondCard-to-Button" style="stroke:#181818;stroke-width:1;"/><polygon fill="#181818" points="876.89,539.71,885.7644,535.4386,880.1263,535.8986,879.6662,530.2605,876.89,539.71" style="stroke:#181818;stroke-width:1;"/></g><!--link SettingCard to Button--><g class="link" data-entity-1="ent0021" data-entity-2="ent0029" data-link-type="dependency" data-source-line="106" id="lnk70"><path d="M1145.41,400.55 C1133.97,419.67 1112.97,449.43 1086,464.1 C1061.98,477.17 1051.07,463.87 1025,472.1 C973.85,488.26 924.7052,516.6638 893.4752,536.4938" fill="none" id="SettingCard-to-Button" style="stroke:#181818;stroke-width:1;"/><polygon fill="#181818" points="888.41,539.71,898.1519,538.2625,892.631,537.0298,893.8636,531.5089,888.41,539.71" style="stroke:#181818;stroke-width:1;"/></g><!--link FilterSidebar to Button--><g class="link" data-entity-1="ent0022" data-entity-2="ent0029" data-link-type="dependency" data-source-line="107" id="lnk71"><path d="M862,400.3 C862,433.63 862,500.24 862,533.71" fill="none" id="FilterSidebar-to-Button" style="stroke:#181818;stroke-width:1;"/><polygon fill="#181818" points="862,539.71,866,530.71,862,534.71,858,530.71,862,539.71" style="stroke:#181818;stroke-width:1;"/></g><!--link StepOneDiamond to Loading--><g class="link" data-entity-1="ent0025" data-entity-2="ent0030" data-link-type="dependency" data-source-line="108" id="lnk72"><path d="M531.19,400.49 C548.51,417.69 576.39,444.17 603,464.1 C642.32,493.57 686.1376,519.2396 717.9376,536.7996" fill="none" id="StepOneDiamond-to-Loading" style="stroke:#181818;stroke-width:1;"/><polygon fill="#181818" points="723.19,539.7,717.245,531.8478,718.813,537.283,713.3778,538.851,723.19,539.7" style="stroke:#181818;stroke-width:1;"/></g><!--link StepTwoSetting to Loading--><g class="link" data-entity-1="ent0026" data-entity-2="ent0030" data-link-type="dependency" data-source-line="109" id="lnk73"><path d="M692.97,400.3 C706.35,433.63 733.2728,500.6727 746.7228,534.1427" fill="none" id="StepTwoSetting-to-Loading" style="stroke:#181818;stroke-width:1;"/><polygon fill="#181818" points="748.96,539.71,749.3157,529.8676,747.0956,535.0706,741.8926,532.8505,748.96,539.71" style="stroke:#181818;stroke-width:1;"/></g><!--link Router to Chatbot--><g class="link" data-entity-1="ent0003" data-entity-2="ent0036" data-link-type="dependency" data-source-line="112" id="lnk74"><path d="M2886.19,60.33 C2778.25,61.4 2443.36,68.56 2348,116.3 C2317.66,131.48 2296.6348,158.7731 2283.6348,178.9931" fill="none" id="Router-to-Chatbot" style="stroke:#181818;stroke-width:1;"/><polygon fill="#181818" points="2280.39,184.04,2288.6218,178.6328,2283.094,179.8342,2281.8926,174.3064,2280.39,184.04" style="stroke:#181818;stroke-width:1;"/></g><!--link Cart to CartStore--><g class="link" data-entity-1="ent0015" data-entity-2="ent0038" data-link-type="dependency" data-source-line="115" id="lnk75"><path d="M3304.91,221.24 C3297.27,230.04 3286.81,239.85 3275,244.81 C3194.44,278.64 2576.34,267.3 2489,269.81 C2471.61,270.31 2191.35,269.62 2176,277.81 C2141.35,296.3 2121.7649,333.8162 2111.7349,358.0462" fill="none" id="Cart-to-CartStore" style="stroke:#181818;stroke-width:1;stroke-dasharray:7,7;"/><polygon fill="#181818" points="2109.44,363.59,2116.5781,356.8042,2111.3524,358.9702,2109.1864,353.7444,2109.44,363.59" style="stroke:#181818;stroke-width:1;"/><text fill="#000000" font-family="sans-serif" font-size="13" lengthAdjust="spacing" textLength="29.7832" x="3236" y="265.8769">uses</text></g><!--link Configurator to ConfigStore--><g class="link" data-entity-1="ent0013" data-entity-2="ent0041" data-link-type="dependency" data-source-line="116" id="lnk76"><path d="M3041.38,221.24 C3027.94,230.16 3010.36,240.08 2993,244.81 C2958.32,254.25 2381.8,249.53 2346,252.81 C2301.54,256.87 2291.44,265.59 2247,269.81 C2223.88,272 1850.37,268.71 1829,277.81 C1787.32,295.56 1756.9277,333.9375 1740.3977,358.4175" fill="none" id="Configurator-to-ConfigStore" style="stroke:#181818;stroke-width:1;stroke-dasharray:7,7;"/><polygon fill="#181818" points="1737.04,363.39,1745.3915,358.1697,1739.8381,359.2462,1738.7615,353.6928,1737.04,363.39" style="stroke:#181818;stroke-width:1;"/><text fill="#000000" font-family="sans-serif" font-size="13" lengthAdjust="spacing" textLength="29.7832" x="2347" y="265.8769">uses</text></g><!--link BrowseDiamonds to FavStore--><g class="link" data-entity-1="ent0009" data-entity-2="ent0039" data-link-type="dependency" data-source-line="117" id="lnk77"><path d="M2396.56,221.24 C2375.58,229.98 2348.87,239.74 2324,244.81 C2319.22,245.78 1627.39,275.69 1623,277.81 C1584.7,296.32 1558.9343,334.1591 1545.1043,358.3891" fill="none" id="BrowseDiamonds-to-FavStore" style="stroke:#181818;stroke-width:1;stroke-dasharray:7,7;"/><polygon fill="#181818" points="1542.13,363.6,1550.0654,357.7665,1544.6086,359.2576,1543.1175,353.8008,1542.13,363.6" style="stroke:#181818;stroke-width:1;"/><text fill="#000000" font-family="sans-serif" font-size="13" lengthAdjust="spacing" textLength="29.7832" x="2135" y="265.8769">uses</text></g><!--link Comparison to CompStore--><g class="link" data-entity-1="ent0014" data-entity-2="ent0042" data-link-type="dependency" data-source-line="118" id="lnk78"><path d="M3183.11,221.24 C3170.06,230.16 3152.98,240.08 3136,244.81 C3099.28,255.03 2487.77,247.72 2450,252.81 C2420.41,256.79 2414.57,265.66 2385,269.81 C2365.46,272.54 2048.1,269.96 2030,277.81 C1988.84,295.66 1959.1626,333.9607 1943.0426,358.4107" fill="none" id="Comparison-to-CompStore" style="stroke:#181818;stroke-width:1;stroke-dasharray:7,7;"/><polygon fill="#181818" points="1939.74,363.42,1948.0334,358.1079,1942.4922,359.2456,1941.3544,353.7044,1939.74,363.42" style="stroke:#181818;stroke-width:1;"/><text fill="#000000" font-family="sans-serif" font-size="13" lengthAdjust="spacing" textLength="29.7832" x="2451" y="265.8769">uses</text></g><!--link Account to UserStore--><g class="link" data-entity-1="ent0017" data-entity-2="ent0040" data-link-type="dependency" data-source-line="119" id="lnk79"><path d="M3397.28,221.21 C3387.04,229.78 3373.68,239.38 3360,244.81 C3164.95,322.24 2513.3496,365.6877 2314.4596,377.3877" fill="none" id="Account-to-UserStore" style="stroke:#181818;stroke-width:1;stroke-dasharray:7,7;"/><polygon fill="#181818" points="2308.47,377.74,2317.6894,381.2046,2313.4614,377.4464,2317.2196,373.2184,2308.47,377.74" style="stroke:#181818;stroke-width:1;"/><text fill="#000000" font-family="sans-serif" font-size="13" lengthAdjust="spacing" textLength="29.7832" x="3330" y="265.8769">uses</text></g><!--link Chatbot to ChatStore--><g class="link" data-entity-1="ent0036" data-entity-2="ent0043" data-link-type="dependency" data-source-line="120" id="lnk80"><path d="M2244.19,221.21 C2229.57,230.11 2210.53,240.04 2192,244.81 C2144.86,256.94 1802.62,250.42 1754,252.81 C1684.53,256.22 1503.76,245.82 1442,277.81 C1405.15,296.89 1380.8466,334.0446 1367.6966,358.1146" fill="none" id="Chatbot-to-ChatStore" style="stroke:#181818;stroke-width:1;stroke-dasharray:7,7;"/><polygon fill="#181818" points="1364.82,363.38,1372.6453,357.3996,1367.2172,358.9921,1365.6247,353.5641,1364.82,363.38" style="stroke:#181818;stroke-width:1;"/><text fill="#000000" font-family="sans-serif" font-size="13" lengthAdjust="spacing" textLength="29.7832" x="1755" y="265.8769">uses</text></g><!--link DiamondCard to APIClient--><g class="link" data-entity-1="ent0020" data-entity-2="ent0045" data-link-type="dependency" data-source-line="123" id="lnk81"><path d="M1022.35,400.53 C1036,418.78 1059.59,447 1086,464.1 C1148.01,504.26 1223.4377,527.7615 1280.7477,541.6015" fill="none" id="DiamondCard-to-APIClient" style="stroke:#181818;stroke-width:1;stroke-dasharray:7,7;"/><polygon fill="#181818" points="1286.58,543.01,1278.7705,537.0091,1281.7197,541.8363,1276.8925,544.7855,1286.58,543.01" style="stroke:#181818;stroke-width:1;"/><text fill="#000000" font-family="sans-serif" font-size="13" lengthAdjust="spacing" textLength="81.2437" x="1127" y="485.1669">fetches data</text></g><!--link SettingCard to APIClient--><g class="link" data-entity-1="ent0021" data-entity-2="ent0045" data-link-type="dependency" data-source-line="124" id="lnk82"><path d="M1175.11,400.3 C1213.73,433.63 1293.3373,502.3203 1332.1273,535.7903" fill="none" id="SettingCard-to-APIClient" style="stroke:#181818;stroke-width:1;stroke-dasharray:7,7;"/><polygon fill="#181818" points="1336.67,539.71,1332.4691,530.802,1332.8844,536.4436,1327.2428,536.859,1336.67,539.71" style="stroke:#181818;stroke-width:1;"/><text fill="#000000" font-family="sans-serif" font-size="13" lengthAdjust="spacing" textLength="81.2437" x="1275" y="485.1669">fetches data</text></g><!--link Configurator to APIClient--><g class="link" data-entity-1="ent0013" data-entity-2="ent0045" data-link-type="dependency" data-source-line="125" id="lnk83"><path d="M3088.66,221.1 C3102.11,229.98 3119.68,239.9 3137,244.81 C3191.07,260.12 4108.92,237.43 4148,277.81 C4205.58,337.3 4205.56,404.59 4148,464.1 C4099.23,514.53 1862.3194,549.8417 1433.4594,556.1517" fill="none" id="Configurator-to-APIClient" style="stroke:#181818;stroke-width:1;stroke-dasharray:7,7;"/><polygon fill="#181818" points="1427.46,556.24,1436.5179,560.1072,1432.4595,556.1664,1436.4002,552.108,1427.46,556.24" style="stroke:#181818;stroke-width:1;"/><text fill="#000000" font-family="sans-serif" font-size="13" lengthAdjust="spacing" textLength="81.2437" x="4192" y="386.5169">fetches data</text></g><?plantuml-src VLN1JXin4BtlLxZqK3Z01_I0508fI1IYXbwAUd1sdSHYTxsolL1QyUyTUspls0a85DdlFTipu_7RJutOo5wm-VttvVtTrTq3qwAslD-seghCa-m7hdd7QjKDgXUzNTdNLX3D95dp-cchrTWtSzKgpJulhjnVLGr0yArWHxDXE6B_AiRW__676gtGlnat38U89_4jVmKOzI2_uyzhZd8S8hnGAkw2Gu3VYfsMy6lIHjUg4rxl1WXTQFLYnANadUeRuyaSehALi5RsMogB4Ch2eajXkMozAaDG59OGKOQWQAxwZToEcbk5AL8WIZgelZIg3u8u3JJN5WaO16WdwYUeBC9XWjIihk7wa0dZ0-MSnrP8DPqghLKprXCnLGFERsWjt3nAGkP9GkPHif0jtErADY8sGOPusPl_pGEY1MChAmOQ6aIxrS8OXm-XYGeiXGZJ-pxs0qQPGLJuyA922aauGPbmfuMOZyQgJluLapY3FyYjWvD9FXUZjQ4FS1Y9MyMR64qOlxkhUnLapskX8VBQoh0ncQUx4ToEK3CgAx12siG-eTe4Hl4LpBXRJJSkmPH7sQKnWlJkvpjkrogslHyVMBQ2HX667V-2ylE-EKdBHoFS6_9yUb5-blW5VrPQMiWwYG3ADJyDD6sYqsmwWpGiESkZfJ8-TQhhXaA5cH89056obxpGpx8cDPijRzYybV3MsV7iZrJc1BrXUOEet-EjghumT6luJFGzNeofqDNPwUbvT6o21BCcYBTZCYySU8z9fakOt6W9aPih8J97pV1af1HrBahdqJu95eqJYk9IWkf2QVtdqqZViHxr6PEtbC3ovPJ4z4mIi_Scu6YiaJ_SiD6DS1chmLLDbHUNriwxxW4wzzly2cY9_Ne887DUcdv6k8MbvUu92gSzo1E3FSpddke3Z9ynNv_QkoaJhUWSLf5oODEXev8iAPnL9zDdiNicEd0UTaP1UDzQjUOjs-2jvqs7vWKY_v2pH-Swb9sTdK_snBww_4nU5g-OJ2LgYdjtgkXWqpRnOOHDWkD4FhI_9vEzfSKOEgwCHXH9oCVv3Ss6Ne9Raum7rco4hNVGt0stFBkM3uLxLNXF-Hy0?></g></svg>